<svg width="76" height="76" viewBox="0 0 76 76" fill="none" xmlns="http://www.w3.org/2000/svg">
    <circle cx="38" cy="38" r="37.4062" fill="#EEF7F0" stroke="#A2D1AE" stroke-width="1.1875"/>
    <path d="M27.25 34.0827V30.666C27.25 25.0114 28.9583 20.416 37.5 20.416C46.0417 20.416 47.75 25.0114 47.75 30.666V34.0827" stroke="#018D25" stroke-width="2.5625" stroke-linecap="round" stroke-linejoin="round"/>
    <path d="M46.0415 54.584H28.9582C22.1248 54.584 20.4165 52.8757 20.4165 46.0423V42.6257C20.4165 35.7923 22.1248 34.084 28.9582 34.084H46.0415C52.8748 34.084 54.5832 35.7923 54.5832 42.6257V46.0423C54.5832 52.8757 52.8748 54.584 46.0415 54.584Z" stroke="#018D25" stroke-width="2.5625" stroke-linecap="round" stroke-linejoin="round"/>
    <path d="M44.3272 44.3327H44.3425" stroke="#018D25" stroke-width="3.41667" stroke-linecap="round" stroke-linejoin="round"/>
    <path d="M37.4922 44.3327H37.5076" stroke="#018D25" stroke-width="3.41667" stroke-linecap="round" stroke-linejoin="round"/>
    <path d="M30.6573 44.3327H30.6726" stroke="#018D25" stroke-width="3.41667" stroke-linecap="round" stroke-linejoin="round"/>
</svg>
