<svg width="80" height="80" viewBox="0 0 80 80" fill="none" xmlns="http://www.w3.org/2000/svg">
<path d="M79.5 40C79.5 61.8153 61.8153 79.5 40 79.5C18.1848 79.5 0.5 61.8153 0.5 40C0.5 18.1848 18.1848 0.5 40 0.5C61.8153 0.5 79.5 18.1848 79.5 40Z" fill="#EEF7F0" stroke="#018D25"/>
<path d="M52.5938 33.3333V37.0958C51.8054 36.9883 50.9096 36.9345 49.9062 36.9166V33.3333C49.9062 27.6895 48.3117 23.927 40.5 23.927C32.6883 23.927 31.0938 27.6895 31.0938 33.3333V36.9166C30.0904 36.9345 29.1946 36.9883 28.4062 37.0958V33.3333C28.4062 28.1374 29.6604 21.2395 40.5 21.2395C51.3396 21.2395 52.5938 28.1374 52.5938 33.3333Z" fill="#018D25"/>
<path d="M52.5937 37.0959C51.8053 36.9884 50.9095 36.9347 49.9062 36.9167H31.0937C30.0903 36.9347 29.1945 36.9884 28.4062 37.0959C23.8374 37.6513 22.5833 39.8909 22.5833 45.8751V49.4584C22.5833 56.6251 24.3749 58.4167 31.5416 58.4167H49.4583C56.6249 58.4167 58.4166 56.6251 58.4166 49.4584V45.8751C58.4166 39.8909 57.1624 37.6513 52.5937 37.0959ZM34.6053 48.9388C34.2649 49.2613 33.7991 49.4584 33.3333 49.4584C33.1003 49.4584 32.8674 49.4047 32.6524 49.3151C32.4195 49.2255 32.2403 49.1001 32.0612 48.9388C31.7387 48.5984 31.5416 48.1326 31.5416 47.6667C31.5416 47.4338 31.5953 47.2009 31.6849 46.9859C31.7745 46.7709 31.8999 46.5738 32.0612 46.3947C32.2403 46.2334 32.4195 46.108 32.6524 46.0184C33.3153 45.7317 34.1037 45.893 34.6053 46.3947C34.7666 46.5738 34.892 46.7709 34.9816 46.9859C35.0712 47.2009 35.1249 47.4338 35.1249 47.6667C35.1249 48.1326 34.9278 48.5984 34.6053 48.9388ZM42.1483 48.3476C42.0587 48.5626 41.9333 48.7597 41.772 48.9388C41.4316 49.2613 40.9658 49.4584 40.4999 49.4584C40.0162 49.4584 39.5683 49.2613 39.2278 48.9388C39.0666 48.7597 38.9412 48.5626 38.8516 48.3476C38.762 48.1326 38.7083 47.8997 38.7083 47.6667C38.7083 47.183 38.9053 46.7351 39.2278 46.3947C39.8908 45.7317 41.0912 45.7317 41.772 46.3947C42.0945 46.7351 42.2916 47.183 42.2916 47.6667C42.2916 47.8997 42.2378 48.1326 42.1483 48.3476ZM48.9387 48.9388C48.5982 49.2613 48.1324 49.4584 47.6666 49.4584C47.2008 49.4584 46.7349 49.2613 46.3945 48.9388C46.072 48.5984 45.8749 48.1505 45.8749 47.6667C45.8749 47.183 46.072 46.7351 46.3945 46.3947C47.0753 45.7317 48.2757 45.7317 48.9387 46.3947C49.0103 46.4842 49.082 46.5738 49.1537 46.6813C49.2253 46.7709 49.2791 46.8784 49.3149 46.9859C49.3687 47.0934 49.4045 47.2009 49.4224 47.3084C49.4403 47.4338 49.4583 47.5592 49.4583 47.6667C49.4583 48.1326 49.2612 48.5984 48.9387 48.9388Z" fill="#018D25"/>
</svg>
